<svg width="28" height="18" viewBox="0 0 28 18" fill="none" xmlns="http://www.w3.org/2000/svg">
<path d="M21.2241 5.33333L15.8774 0H9.9974V2.66667H14.7841L17.4507 5.33333H6.66406C3.33073 5.33333 0.664062 8 0.664062 11.3333C0.664062 14.6667 3.33073 17.3333 6.66406 17.3333C9.62406 17.3333 12.0774 15.1733 12.5574 12.36L15.3841 10.6667C15.3307 10.8933 15.3307 11.1067 15.3307 11.3333C15.3307 14.6667 17.9974 17.3333 21.3307 17.3333C24.6641 17.3333 27.3307 14.6667 27.3307 11.3333C27.3307 8 24.6641 5.33333 21.3307 5.33333M9.78406 12.3467C9.33073 13.6933 8.10406 14.6667 6.62406 14.6667C4.78406 14.6667 3.29073 13.1733 3.29073 11.3333C3.29073 9.49333 4.78406 8 6.62406 8C8.11739 8 9.33073 8.98667 9.78406 10.3333H5.9974V12.3333L9.78406 12.3467ZM21.2907 14.6667C19.4507 14.6667 17.9574 13.1733 17.9574 11.3333C17.9574 9.49333 19.4507 8 21.2907 8C22.1748 8 23.0226 8.35119 23.6477 8.97631C24.2729 9.60143 24.6241 10.4493 24.6241 11.3333C24.6241 12.2174 24.2729 13.0652 23.6477 13.6904C23.0226 14.3155 22.1748 14.6667 21.2907 14.6667Z" fill="#1D1B20" fill-opacity="0.6"/>
</svg>
