<svg width="25" height="22" viewBox="0 0 25 22" fill="none" xmlns="http://www.w3.org/2000/svg">
<path d="M3.65104 8.66406L5.65104 2.66406H20.3177L22.3177 8.66406M20.3177 15.3307C19.7873 15.3307 19.2786 15.12 18.9035 14.7449C18.5284 14.3699 18.3177 13.8612 18.3177 13.3307C18.3177 12.8003 18.5284 12.2916 18.9035 11.9165C19.2786 11.5414 19.7873 11.3307 20.3177 11.3307C20.8481 11.3307 21.3568 11.5414 21.7319 11.9165C22.107 12.2916 22.3177 12.8003 22.3177 13.3307C22.3177 13.8612 22.107 14.3699 21.7319 14.7449C21.3568 15.12 20.8481 15.3307 20.3177 15.3307ZM5.65104 15.3307C5.12061 15.3307 4.6119 15.12 4.23683 14.7449C3.86176 14.3699 3.65104 13.8612 3.65104 13.3307C3.65104 12.8003 3.86176 12.2916 4.23683 11.9165C4.6119 11.5414 5.12061 11.3307 5.65104 11.3307C6.18147 11.3307 6.69018 11.5414 7.06526 11.9165C7.44033 12.2916 7.65104 12.8003 7.65104 13.3307C7.65104 13.8612 7.44033 14.3699 7.06526 14.7449C6.69018 15.12 6.18147 15.3307 5.65104 15.3307ZM22.211 1.9974C21.9444 1.22406 21.1977 0.664062 20.3177 0.664062H5.65104C4.77104 0.664062 4.02437 1.22406 3.75771 1.9974L0.984375 9.9974V20.6641C0.984375 21.0177 1.12485 21.3568 1.3749 21.6069C1.62495 21.8569 1.96409 21.9974 2.31771 21.9974H3.65104C4.00466 21.9974 4.3438 21.8569 4.59385 21.6069C4.8439 21.3568 4.98438 21.0177 4.98438 20.6641V19.3307H20.9844V20.6641C20.9844 21.0177 21.1249 21.3568 21.3749 21.6069C21.6249 21.8569 21.9641 21.9974 22.3177 21.9974H23.651C24.0047 21.9974 24.3438 21.8569 24.5939 21.6069C24.8439 21.3568 24.9844 21.0177 24.9844 20.6641V9.9974L22.211 1.9974Z" fill="#1D1B20" fill-opacity="0.6"/>
</svg>
