<svg width="20" height="20" viewBox="0 0 20 20" fill="none" xmlns="http://www.w3.org/2000/svg">
<path d="M9.99935 1.66797C5.41602 1.66797 1.66602 5.41797 1.66602 10.0013C1.66602 14.5846 5.41602 18.3346 9.99935 18.3346C14.5827 18.3346 18.3327 14.5846 18.3327 10.0013C18.3327 5.41797 14.5827 1.66797 9.99935 1.66797ZM9.99935 16.668C6.32435 16.668 3.33268 13.6763 3.33268 10.0013C3.33268 6.3263 6.32435 3.33464 9.99935 3.33464C13.6743 3.33464 16.666 6.3263 16.666 10.0013C16.666 13.6763 13.6743 16.668 9.99935 16.668ZM13.8243 6.31797L8.33268 11.8096L6.17435 9.65964L4.99935 10.8346L8.33268 14.168L14.9993 7.5013L13.8243 6.31797Z" fill="#25AA43"/>
</svg>
