<svg width="16" height="9" viewBox="0 0 16 9" fill="none" xmlns="http://www.w3.org/2000/svg">
<path d="M2.3999 1.83333C2.03324 1.83333 1.73324 1.53333 1.73324 1.16667C1.73324 0.8 2.03324 0.5 2.3999 0.5H4.09324C3.8599 0.9 3.73324 1.36 3.73324 1.83333H2.3999ZM3.73324 5.16667H1.73324C1.36657 5.16667 1.06657 4.86667 1.06657 4.5C1.06657 4.13333 1.36657 3.83333 1.73324 3.83333H3.73324V5.16667ZM1.06657 8.5C0.698569 8.5 0.399902 8.2 0.399902 7.83333C0.399902 7.46667 0.698569 7.16667 1.06657 7.16667H3.73324C3.73324 7.64 3.8599 8.1 4.09324 8.5H1.06657ZM14.3999 0.5H6.3999C5.6599 0.5 5.06657 1.09333 5.06657 1.83333V7.16667C5.06657 7.90667 5.6599 8.5 6.3999 8.5H14.3999C15.1399 8.5 15.7332 7.90667 15.7332 7.16667V1.83333C15.7332 1.09333 15.1399 0.5 14.3999 0.5ZM14.3999 1.83333V2.5H6.3999V1.83333H14.3999ZM6.3999 7.16667V4.5H14.3999V7.16667H6.3999Z" fill="#1D1B20" fill-opacity="0.6"/>
</svg>
