<svg width="20" height="20" viewBox="0 0 20 20" fill="none" xmlns="http://www.w3.org/2000/svg">
<path d="M9.9987 13.332C10.4407 13.332 10.8646 13.5076 11.1772 13.8202C11.4898 14.1327 11.6654 14.5567 11.6654 14.9987C11.6654 15.4407 11.4898 15.8646 11.1772 16.1772C10.8646 16.4898 10.4407 16.6654 9.9987 16.6654C9.55667 16.6654 9.13275 16.4898 8.82019 16.1772C8.50763 15.8646 8.33203 15.4407 8.33203 14.9987C8.33203 14.5567 8.50763 14.1327 8.82019 13.8202C9.13275 13.5076 9.55667 13.332 9.9987 13.332ZM9.9987 8.33203C10.4407 8.33203 10.8646 8.50763 11.1772 8.82019C11.4898 9.13275 11.6654 9.55667 11.6654 9.9987C11.6654 10.4407 11.4898 10.8646 11.1772 11.1772C10.8646 11.4898 10.4407 11.6654 9.9987 11.6654C9.55667 11.6654 9.13275 11.4898 8.82019 11.1772C8.50763 10.8646 8.33203 10.4407 8.33203 9.9987C8.33203 9.55667 8.50763 9.13275 8.82019 8.82019C9.13275 8.50763 9.55667 8.33203 9.9987 8.33203ZM9.9987 3.33203C10.4407 3.33203 10.8646 3.50763 11.1772 3.82019C11.4898 4.13275 11.6654 4.55667 11.6654 4.9987C11.6654 5.44073 11.4898 5.86465 11.1772 6.17721C10.8646 6.48977 10.4407 6.66536 9.9987 6.66536C9.55667 6.66536 9.13275 6.48977 8.82019 6.17721C8.50763 5.86465 8.33203 5.44073 8.33203 4.9987C8.33203 4.55667 8.50763 4.13275 8.82019 3.82019C9.13275 3.50763 9.55667 3.33203 9.9987 3.33203Z" fill="#1D1B20" fill-opacity="0.6"/>
</svg>
