<svg width="12" height="15" viewBox="0 0 12 15" fill="none" xmlns="http://www.w3.org/2000/svg">
<path d="M1.53068 0.832031H10.864C11.0408 0.832031 11.2104 0.902269 11.3354 1.02729C11.4604 1.15232 11.5307 1.32189 11.5307 1.4987V8.16536C11.5307 8.34218 11.4604 8.51174 11.3354 8.63677C11.2104 8.76179 11.0408 8.83203 10.864 8.83203H1.53068C1.35387 8.83203 1.1843 8.76179 1.05928 8.63677C0.934252 8.51174 0.864014 8.34218 0.864014 8.16536V1.4987C0.864014 1.32189 0.934252 1.15232 1.05928 1.02729C1.1843 0.902269 1.35387 0.832031 1.53068 0.832031ZM2.19735 2.16536V7.4987H10.1973V2.16536H2.19735ZM11.5307 10.832C11.5307 11.0088 11.4604 11.1784 11.3354 11.3034C11.2104 11.4285 11.0408 11.4987 10.864 11.4987H1.53068C1.35387 11.4987 1.1843 11.4285 1.05928 11.3034C0.934252 11.1784 0.864014 11.0088 0.864014 10.832V10.1654H11.5307V10.832ZM11.5307 13.4987C11.5307 13.6755 11.4604 13.8451 11.3354 13.9701C11.2104 14.0951 11.0408 14.1654 10.864 14.1654H1.53068C1.35387 14.1654 1.1843 14.0951 1.05928 13.9701C0.934252 13.8451 0.864014 13.6755 0.864014 13.4987V12.832H11.5307V13.4987Z" fill="#1D1B20" fill-opacity="0.6"/>
</svg>
