<svg width="25" height="24" viewBox="0 0 25 24" fill="none" xmlns="http://www.w3.org/2000/svg">
<g clip-path="url(#clip0_163_61826)">
<path fill-rule="evenodd" clip-rule="evenodd" d="M0.25 12.066C0.25 18.032 4.583 22.993 10.25 23.999V15.332H7.25V11.999H10.25V9.33202C10.25 6.33202 12.183 4.66602 14.917 4.66602C15.783 4.66602 16.717 4.79902 17.583 4.93202V7.99902H16.05C14.583 7.99902 14.25 8.73202 14.25 9.66602V11.999H17.45L16.917 15.332H14.25V23.999C19.917 22.993 24.25 18.033 24.25 12.066C24.25 5.42902 18.85 -0.000976562 12.25 -0.000976562C5.65 -0.000976562 0.25 5.42902 0.25 12.066Z" fill="white"/>
</g>
<defs>
<clipPath id="clip0_163_61826">
<rect width="24" height="24" fill="white" transform="translate(0.25 -0.000976562)"/>
</clipPath>
</defs>
</svg>
