<svg width="24" height="22" viewBox="0 0 24 22" fill="none" xmlns="http://www.w3.org/2000/svg">
<path d="M21.5899 3.8409L9.37982 15.8247L4.84252 11.3754L6.35139 9.89576L9.37982 12.8655L20.081 2.37178L21.5899 3.8409ZM10.8887 19.3925C6.16947 19.3925 2.32774 15.6253 2.32774 10.9976C2.32774 6.36988 6.16947 2.60264 10.8887 2.60264C12.5688 2.60264 14.1419 3.08535 15.4688 3.91436L17.0205 2.39277C15.2762 1.20698 13.168 0.503906 10.8887 0.503906C4.98163 0.503906 0.1875 5.20508 0.1875 10.9976C0.1875 16.7901 4.98163 21.4913 10.8887 21.4913C12.74 21.4913 14.4843 21.0296 16.0039 20.2111L14.3987 18.637C13.3286 19.1197 12.1407 19.3925 10.8887 19.3925ZM18.3795 14.1457H15.1692V16.2444H18.3795V19.3925H20.5198V16.2444H23.7301V14.1457H20.5198V10.9976H18.3795V14.1457Z" fill="#212529"/>
</svg>
