<svg width="17" height="18" viewBox="0 0 17 18" fill="none" xmlns="http://www.w3.org/2000/svg">
<path d="M16.3663 14.4055C15.961 13.4455 15.3729 12.5735 14.6346 11.8381C13.8986 11.1005 13.0268 10.5125 12.0672 10.1064C12.0586 10.1021 12.0501 10.1 12.0415 10.0957C13.3799 9.12891 14.2501 7.5541 14.2501 5.77734C14.2501 2.83398 11.8653 0.449219 8.92193 0.449219C5.97857 0.449219 3.5938 2.83398 3.5938 5.77734C3.5938 7.5541 4.46392 9.12891 5.8024 10.0979C5.7938 10.1021 5.78521 10.1043 5.77662 10.1086C4.81412 10.5146 3.95044 11.0969 3.20923 11.8402C2.4717 12.5762 1.88366 13.4481 1.47759 14.4076C1.07868 15.347 0.863531 16.3542 0.843804 17.3746C0.84323 17.3975 0.847252 17.4204 0.855633 17.4417C0.864013 17.4631 0.876582 17.4825 0.8926 17.4989C0.908617 17.5153 0.927759 17.5284 0.948897 17.5373C0.970035 17.5462 0.992742 17.5508 1.01568 17.5508H2.30474C2.39927 17.5508 2.47447 17.4756 2.47662 17.3832C2.51959 15.7246 3.1856 14.1713 4.36294 12.9939C5.58111 11.7758 7.19888 11.1055 8.92193 11.1055C10.645 11.1055 12.2628 11.7758 13.4809 12.9939C14.6583 14.1713 15.3243 15.7246 15.3672 17.3832C15.3694 17.4777 15.4446 17.5508 15.5391 17.5508H16.8282C16.8511 17.5508 16.8738 17.5462 16.895 17.5373C16.9161 17.5284 16.9352 17.5153 16.9513 17.4989C16.9673 17.4825 16.9798 17.4631 16.9882 17.4417C16.9966 17.4204 17.0006 17.3975 17.0001 17.3746C16.9786 16.3477 16.7659 15.3486 16.3663 14.4055ZM8.92193 9.47266C7.9358 9.47266 7.00767 9.08809 6.30943 8.38984C5.61119 7.6916 5.22662 6.76348 5.22662 5.77734C5.22662 4.79121 5.61119 3.86309 6.30943 3.16484C7.00767 2.4666 7.9358 2.08203 8.92193 2.08203C9.90806 2.08203 10.8362 2.4666 11.5344 3.16484C12.2327 3.86309 12.6172 4.79121 12.6172 5.77734C12.6172 6.76348 12.2327 7.6916 11.5344 8.38984C10.8362 9.08809 9.90806 9.47266 8.92193 9.47266Z" fill="#404040"/>
</svg>
