<svg width="25" height="24" viewBox="0 0 25 24" fill="none" xmlns="http://www.w3.org/2000/svg">
<g clip-path="url(#clip0_163_61824)">
<path d="M12.2488 8.32738C10.2272 8.32738 8.57742 9.97717 8.57742 11.9988C8.57742 14.0204 10.2272 15.6702 12.2488 15.6702C14.2703 15.6702 15.9201 14.0204 15.9201 11.9988C15.9201 9.97717 14.2703 8.32738 12.2488 8.32738ZM23.26 11.9988C23.26 10.4784 23.2738 8.97187 23.1884 7.45428C23.103 5.69157 22.7009 4.12716 21.4119 2.83817C20.1202 1.54643 18.5586 1.14707 16.7959 1.06169C15.2756 0.976306 13.7691 0.990077 12.2515 0.990077C10.7312 0.990077 9.22465 0.976306 7.70709 1.06169C5.94441 1.14707 4.38003 1.54919 3.09107 2.83817C1.79935 4.12991 1.4 5.69157 1.31462 7.45428C1.22924 8.97462 1.24301 10.4812 1.24301 11.9988C1.24301 13.5164 1.22924 15.0257 1.31462 16.5433C1.4 18.306 1.80211 19.8704 3.09107 21.1594C4.38278 22.4511 5.94441 22.8505 7.70709 22.9359C9.22741 23.0213 10.7339 23.0075 12.2515 23.0075C13.7718 23.0075 15.2784 23.0213 16.7959 22.9359C18.5586 22.8505 20.123 22.4484 21.4119 21.1594C22.7037 19.8676 23.103 18.306 23.1884 16.5433C23.2765 15.0257 23.26 13.5191 23.26 11.9988ZM12.2488 17.6477C9.12275 17.6477 6.59991 15.1248 6.59991 11.9988C6.59991 8.87272 9.12275 6.34983 12.2488 6.34983C15.3748 6.34983 17.8976 8.87272 17.8976 11.9988C17.8976 15.1248 15.3748 17.6477 12.2488 17.6477ZM18.1289 7.43776C17.3991 7.43776 16.8097 6.84835 16.8097 6.11847C16.8097 5.3886 17.3991 4.79919 18.1289 4.79919C18.8588 4.79919 19.4482 5.3886 19.4482 6.11847C19.4484 6.29179 19.4144 6.46344 19.3482 6.6236C19.282 6.78376 19.1848 6.92928 19.0623 7.05183C18.9397 7.17438 18.7942 7.27155 18.6341 7.33778C18.4739 7.404 18.3023 7.43797 18.1289 7.43776Z" fill="white"/>
</g>
<defs>
<clipPath id="clip0_163_61824">
<rect width="24" height="24" fill="white" transform="translate(0.25 -0.000976562)"/>
</clipPath>
</defs>
</svg>
