<svg width="25" height="24" viewBox="0 0 25 24" fill="none" xmlns="http://www.w3.org/2000/svg">
<path fill-rule="evenodd" clip-rule="evenodd" d="M1.25 2.83703C1.25 2.34956 1.44365 1.88206 1.78834 1.53736C2.13303 1.19267 2.60053 0.999026 3.088 0.999026H21.41C21.6516 0.998631 21.8909 1.04589 22.1141 1.13809C22.3374 1.2303 22.5403 1.36564 22.7112 1.53636C22.8822 1.70709 23.0177 1.90985 23.1102 2.13304C23.2026 2.35622 23.2501 2.59545 23.25 2.83703V21.159C23.2503 21.4006 23.2029 21.6399 23.1106 21.8632C23.0183 22.0865 22.8828 22.2894 22.712 22.4603C22.5412 22.6312 22.3384 22.7668 22.1151 22.8592C21.8919 22.9516 21.6526 22.9992 21.411 22.999H3.088C2.84655 22.999 2.60746 22.9515 2.3844 22.859C2.16134 22.7666 1.95867 22.6311 1.78798 22.4603C1.6173 22.2896 1.48193 22.0868 1.38962 21.8637C1.29731 21.6406 1.24987 21.4015 1.25 21.16V2.83703ZM9.958 9.38703H12.937V10.883C13.367 10.023 14.467 9.24903 16.12 9.24903C19.289 9.24903 20.04 10.962 20.04 14.105V19.927H16.833V14.821C16.833 13.031 16.403 12.021 15.311 12.021C13.796 12.021 13.166 13.11 13.166 14.821V19.927H9.958V9.38703ZM4.458 19.79H7.666V9.24903H4.458V19.789V19.79ZM8.125 5.81103C8.13105 6.0857 8.08217 6.35881 7.98124 6.61434C7.88031 6.86987 7.72935 7.10266 7.53723 7.29906C7.34511 7.49545 7.1157 7.6515 6.86246 7.75803C6.60921 7.86457 6.33724 7.91944 6.0625 7.91944C5.78776 7.91944 5.51579 7.86457 5.26255 7.75803C5.0093 7.6515 4.77989 7.49545 4.58777 7.29906C4.39565 7.10266 4.24469 6.86987 4.14376 6.61434C4.04283 6.35881 3.99395 6.0857 4 5.81103C4.01187 5.27188 4.23439 4.75882 4.61989 4.38171C5.00539 4.00461 5.52322 3.79344 6.0625 3.79344C6.60178 3.79344 7.11961 4.00461 7.50512 4.38171C7.89062 4.75882 8.11313 5.27188 8.125 5.81103Z" fill="white"/>
</svg>
