<svg width="14" height="15" viewBox="0 0 14 15" fill="none" xmlns="http://www.w3.org/2000/svg">
<path d="M6.80265 2.16536C9.73599 2.16536 12.136 4.56536 12.136 7.4987C12.136 10.432 9.73599 12.832 6.80265 12.832C3.86932 12.832 1.46932 10.432 1.46932 7.4987C1.46932 4.56536 3.86932 2.16536 6.80265 2.16536ZM6.80265 0.832031C3.13599 0.832031 0.135986 3.83203 0.135986 7.4987C0.135986 11.1654 3.13599 14.1654 6.80265 14.1654C10.4693 14.1654 13.4693 11.1654 13.4693 7.4987C13.4693 3.83203 10.4693 0.832031 6.80265 0.832031ZM10.136 10.832H3.46932V9.4987H10.136V10.832ZM4.13599 8.83203V6.83203H5.46932V8.83203H4.13599ZM6.13599 8.83203V6.83203H7.46932V8.83203H6.13599ZM8.13599 8.83203V6.83203H9.46932V8.83203H8.13599ZM10.136 6.16536H3.46932V5.16536L6.80265 3.4987L10.136 5.16536V6.16536Z" fill="#1D1B20" fill-opacity="0.6"/>
</svg>
