<svg width="21" height="20" viewBox="0 0 21 20" fill="none" xmlns="http://www.w3.org/2000/svg">
<path d="M17.1667 12.9169C16.1667 12.9169 15.0833 12.7502 14.1667 12.4169C14.0833 12.4169 14 12.4169 13.9167 12.4169C13.6667 12.4169 13.5 12.5002 13.3333 12.6669L11.5 14.5002C9.16667 13.2502 7.16667 11.3336 6 9.00024L7.83333 7.16691C8.08333 6.91691 8.16667 6.58358 8 6.33358C7.75 5.41691 7.58333 4.33358 7.58333 3.33358C7.58333 2.91691 7.16667 2.50024 6.75 2.50024H3.83333C3.41667 2.50024 3 2.91691 3 3.33358C3 11.1669 9.33333 17.5002 17.1667 17.5002C17.5833 17.5002 18 17.0836 18 16.6669V13.7502C18 13.3336 17.5833 12.9169 17.1667 12.9169ZM4.66667 4.16691H5.91667C6 4.91691 6.16667 5.66691 6.33333 6.33358L5.33333 7.33358C5 6.33358 4.75 5.25024 4.66667 4.16691ZM16.3333 15.8336C15.25 15.7502 14.1667 15.5002 13.1667 15.1669L14.1667 14.1669C14.8333 14.3336 15.5833 14.5002 16.3333 14.5002V15.8336Z" fill="#4080E0"/>
</svg>
