<svg width="300" height="300" viewBox="0 0 300 300" fill="none" xmlns="http://www.w3.org/2000/svg">
<path d="M163.637 0H199.996V27.2722H218.175V18.1799H227.267V36.3645H218.175V45.4567H209.088V36.3645H190.908V27.2722H163.637V36.3645H145.453V27.2722H154.54V18.1799H172.724V9.09227H163.637V0Z" fill="black"/>
<path d="M0 0V63.6367H63.6346V0H0ZM54.5426 54.5444H9.09197V9.09227H54.5426V54.5444Z" fill="black"/>
<path d="M154.54 9.09375H145.453V18.186H154.54V9.09375Z" fill="black"/>
<path d="M236.344 0V63.6367H299.978V0H236.344ZM290.886 54.5444H245.431V9.09227H290.886V54.5444Z" fill="black"/>
<path d="M45.4432 18.1797H18.1719V45.4519H45.4432V18.1797Z" fill="black"/>
<path d="M281.803 18.1797H254.531V45.4519H281.803V18.1797Z" fill="black"/>
<path d="M118.185 18.1814V9.09375H100.006V18.186H72.7344V36.366H81.8263V27.2737H90.9137V45.4536H81.8263V54.5413H90.9137V90.9057H100.006V81.8181H109.098V90.9057H118.19V72.7258H109.098V63.6335H100.006V54.5413H109.098V63.6335H118.19V54.5413H127.282V27.2737H136.374V18.1814H118.185ZM118.185 36.366H100.006V27.2737H118.185V36.366Z" fill="black"/>
<path d="M136.375 36.3633H145.467V45.4556H154.554V63.6355H163.651V36.3633H172.738V45.4556H181.83V36.3633H190.922V63.6355H181.83V54.5432H172.738V63.6355H181.83V81.82H172.738V72.7277H145.467V54.5432H136.375V36.3633Z" fill="black"/>
<path d="M227.279 45.457H218.188V63.637H227.279V45.457Z" fill="black"/>
<path d="M81.8263 54.5469H72.7344V63.6391H81.8263V54.5469Z" fill="black"/>
<path d="M136.373 54.5469H127.281V63.6391H136.373V54.5469Z" fill="black"/>
<path d="M127.279 63.6367H118.188V72.729H127.279V63.6367Z" fill="black"/>
<path d="M27.2656 72.7266H45.4496V81.8188H36.3576V90.9065H27.2656V72.7266Z" fill="black"/>
<path d="M54.5469 72.7266H72.7308V81.8188H81.8228V90.9065H63.6388V81.8188H54.5469V72.7266Z" fill="black"/>
<path d="M127.281 72.7266H145.461V109.086H136.369V81.8188H127.281V72.7266Z" fill="black"/>
<path d="M263.617 72.7266H281.801V90.9065H299.98V99.9988H281.801V109.086H272.709V90.9065H245.438V81.8188H263.617V72.7266Z" fill="black"/>
<path d="M154.531 81.8203H172.715V100H163.628V90.908H154.531V81.8203Z" fill="black"/>
<path d="M181.797 81.8203H190.889V90.908H199.976V100H181.797V81.8203Z" fill="black"/>
<path d="M236.358 81.8203H227.266V90.908H236.358V81.8203Z" fill="black"/>
<path d="M27.2638 90.9102H18.1719V100.002H27.2638V90.9102Z" fill="black"/>
<path d="M36.375 90.9102H63.6463V100.002H54.5543V109.09H45.467V100.002H36.375V90.9102Z" fill="black"/>
<path d="M245.436 90.9102H236.344V100.002H245.436V90.9102Z" fill="black"/>
<path d="M36.3576 100H27.2656V109.092H36.3576V100Z" fill="black"/>
<path d="M163.628 100H154.531V109.092H163.628V100Z" fill="black"/>
<path d="M18.1701 109.09H9.07812V118.182H18.1701V109.09Z" fill="black"/>
<path d="M63.6388 109.09H54.5469V118.182H63.6388V109.09Z" fill="black"/>
<path d="M245.445 109.09H227.266V118.182H245.445V109.09Z" fill="black"/>
<path d="M263.623 109.09H254.531V118.182H263.623V109.09Z" fill="black"/>
<path d="M299.998 109.09H290.906V118.182H299.998V109.09Z" fill="black"/>
<path d="M136.351 118.182V109.09H127.259V99.9978H118.167V109.09H109.075V90.9102H99.9829V100.002H63.6243V109.095H72.7162V118.187H81.8082V109.095H99.9875V118.187H90.8956V127.279H54.5323V118.187H27.2656V127.279H36.3576V136.372H45.4496V163.644H54.5369V154.547H63.6289V163.644H54.5369V172.731H72.7209V190.916H81.8128V163.644H72.7209V145.464H54.5369V136.372H81.8128V145.464H90.9002V154.551H99.9922V145.464H109.084V154.551H118.176V172.731H109.084V200.004H118.176V181.824H136.355V172.731H145.447V154.551H136.355V163.648H127.263V145.468H136.355V127.288H145.447V136.381H154.535V118.196H136.351V118.182ZM127.263 136.367H99.9922V127.275H109.084V118.182H118.176V127.275H127.268L127.263 136.367Z" fill="black"/>
<path d="M172.712 118.184H163.625V127.276H172.712V118.184Z" fill="black"/>
<path d="M190.893 118.184H181.797V127.276H190.893V118.184Z" fill="black"/>
<path d="M27.2638 127.273H18.1719V136.366H27.2638V127.273Z" fill="black"/>
<path d="M172.703 127.273H181.795V136.366H190.887V145.458H172.703V127.273Z" fill="black"/>
<path d="M163.628 136.367H154.531V145.459H163.628V136.367Z" fill="black"/>
<path d="M0 145.457H27.2713V163.637H18.1793V154.54H9.09197V172.725H18.1793V181.817H9.09197V218.177H27.2713V227.269H0V145.457Z" fill="black"/>
<path d="M154.54 145.457H145.453V154.545H154.54V145.457Z" fill="black"/>
<path d="M172.703 154.543H190.887V163.64H199.974V154.543H209.066V163.64H227.246V172.728H236.338V181.82H218.154V172.728H190.887V190.912H172.703V181.82H181.795V163.64H172.703V154.543Z" fill="black"/>
<path d="M281.828 154.545V145.457H290.92V136.365H281.828V118.18H263.648V127.273H272.74V145.453H263.648V127.273H254.556V145.453H245.464V127.273H236.373V145.453H227.281V118.176H218.189V109.083H227.281V90.9035H218.189V81.8159H227.281V72.7236H218.189V63.6313H209.097V54.5391H200.005V72.7236H209.097V81.8159H200.005V90.9035H209.097V109.083H190.922V118.176H200.009V136.36H209.101V127.268H218.193V136.36H209.101V154.536H236.373V163.632H254.552V172.72H263.644V181.812H290.915V172.72H281.823V163.632H290.915V172.72H300.007V154.54L281.828 154.545ZM272.736 163.642H263.644V154.545H272.736V163.642Z" fill="black"/>
<path d="M45.467 163.641H36.375V172.728H45.467V163.641Z" fill="black"/>
<path d="M90.8906 163.641H109.07V172.728H99.9826V190.913H90.8906V163.641Z" fill="black"/>
<path d="M36.3576 172.723H27.2656V181.815H36.3576V172.723Z" fill="black"/>
<path d="M154.54 172.723H145.453V181.815H154.54V172.723Z" fill="black"/>
<path d="M63.6481 181.816H45.4688V190.913H63.6481V181.816Z" fill="black"/>
<path d="M299.998 181.816H290.906V190.913H299.998V181.816Z" fill="black"/>
<path d="M27.2638 190.91H36.3558V209.09H18.1719V199.998H27.2638V190.91Z" fill="black"/>
<path d="M81.8228 190.91H90.9101V209.09H100.002V227.27H90.9101V218.178H72.7308V209.09H54.5469V199.998H81.8228V190.91Z" fill="black"/>
<path d="M127.281 190.91H145.461V199.998H154.548V209.09H127.281V190.91Z" fill="black"/>
<path d="M163.628 190.91H154.531V199.998H163.628V190.91Z" fill="black"/>
<path d="M227.279 190.91H218.188V199.998H227.279V190.91Z" fill="black"/>
<path d="M263.623 190.91H254.531V199.998H263.623V190.91Z" fill="black"/>
<path d="M109.076 200H99.9844V209.092H109.076V200Z" fill="black"/>
<path d="M263.609 200H299.973V209.092H281.793V218.18H272.701V209.092H263.609V200Z" fill="black"/>
<path d="M127.279 209.086H118.188V218.178H127.279V209.086Z" fill="black"/>
<path d="M72.7308 218.18H54.5469V227.272H72.7308V218.18Z" fill="black"/>
<path d="M118.17 218.18H109.078V227.272H118.17V218.18Z" fill="black"/>
<path d="M136.373 218.18H127.281V227.272H136.373V218.18Z" fill="black"/>
<path d="M299.998 218.18H290.906V227.272H299.998V218.18Z" fill="black"/>
<path d="M72.7344 227.273H90.9137V236.366H81.8263V245.458H72.7344V227.273Z" fill="black"/>
<path d="M245.436 236.359H236.344V245.452H245.436V236.359Z" fill="black"/>
<path d="M0 236.359V299.996H63.6346V236.359H0ZM54.5426 290.904H9.09197V245.447H54.5426V290.904Z" fill="black"/>
<path d="M299.998 245.453H290.906V263.633H299.998V245.453Z" fill="black"/>
<path d="M45.4432 254.543H18.1719V281.815H45.4432V254.543Z" fill="black"/>
<path d="M72.7344 254.543H90.9137V290.907H81.8263V272.728H72.7344V254.543Z" fill="black"/>
<path d="M281.805 236.359V227.267H272.713V218.175H263.621V209.083H245.442V190.907H254.534V172.723H245.442V181.815H236.35V209.087H218.171V199.995H209.079V190.907H199.987V199.995H163.628V218.175H172.716V209.083H181.807V218.175H190.904V209.083H209.079V245.447H190.904V254.539H181.807V272.719H172.716V290.899H163.628V272.719H154.532V263.627H163.628V254.535H154.532V245.442H181.803V236.35H199.982V227.258H154.527V218.166H145.44V236.345H127.26V227.253H118.168V236.345H109.076V227.253H99.9844V245.433H109.076V254.525H118.168V245.433H145.44V254.525H118.168V263.618H145.44V281.798H136.348V272.705H118.168V290.885H127.26V299.996H136.352V290.904H145.444V299.996H181.803V281.816H199.982V290.908H190.895V299.996H209.07V290.904H218.162V281.811H209.07V263.632H272.704V254.539H281.796V245.447H263.617V236.355H281.805V236.359ZM199.987 272.724H190.899V263.632H199.987V272.724ZM254.529 254.539H227.258V227.267H254.529V254.539Z" fill="black"/>
<path d="M281.812 263.637H290.9V272.729H299.992V290.909H281.812V263.637Z" fill="black"/>
<path d="M109.076 272.727H99.9844V281.819H109.076V272.727Z" fill="black"/>
<path d="M227.266 272.727H236.358V281.819H245.45V290.906H227.266V272.727Z" fill="black"/>
<path d="M254.531 272.727H272.715V290.906H263.623V281.819H254.531V272.727Z" fill="black"/>
<path d="M118.164 290.906H99.9844V299.999H118.164V290.906Z" fill="black"/>
<path d="M227.279 290.906H218.188V299.999H227.279V290.906Z" fill="black"/>
<path d="M254.529 290.906H245.438V299.999H254.529V290.906Z" fill="black"/>
<path d="M281.826 290.906H272.734V299.999H281.826V290.906Z" fill="black"/>
</svg>
