<svg width="19" height="19" viewBox="0 0 19 19" fill="none" xmlns="http://www.w3.org/2000/svg">
<g opacity="0.6" clip-path="url(#clip0_163_61702)">
<path d="M14.25 12.7297C13.6483 12.7297 13.11 12.9672 12.6983 13.3393L7.05375 10.0538C7.09333 9.87176 7.125 9.68967 7.125 9.49967C7.125 9.30967 7.09333 9.12759 7.05375 8.94551L12.635 5.69176C13.0625 6.08759 13.6246 6.33301 14.25 6.33301C15.5642 6.33301 16.625 5.27217 16.625 3.95801C16.625 2.64384 15.5642 1.58301 14.25 1.58301C12.9358 1.58301 11.875 2.64384 11.875 3.95801C11.875 4.14801 11.9067 4.33009 11.9462 4.51217L6.365 7.76592C5.9375 7.37009 5.37542 7.12467 4.75 7.12467C3.43583 7.12467 2.375 8.18551 2.375 9.49967C2.375 10.8138 3.43583 11.8747 4.75 11.8747C5.37542 11.8747 5.9375 11.6293 6.365 11.2334L12.0017 14.5268C11.9621 14.693 11.9383 14.8672 11.9383 15.0413C11.9383 16.3159 12.9754 17.353 14.25 17.353C15.5246 17.353 16.5617 16.3159 16.5617 15.0413C16.5617 13.7668 15.5246 12.7297 14.25 12.7297Z" fill="black"/>
<path d="M14.25 12.7297C13.6483 12.7297 13.11 12.9672 12.6983 13.3393L7.05375 10.0538C7.09333 9.87176 7.125 9.68967 7.125 9.49967C7.125 9.30967 7.09333 9.12759 7.05375 8.94551L12.635 5.69176C13.0625 6.08759 13.6246 6.33301 14.25 6.33301C15.5642 6.33301 16.625 5.27217 16.625 3.95801C16.625 2.64384 15.5642 1.58301 14.25 1.58301C12.9358 1.58301 11.875 2.64384 11.875 3.95801C11.875 4.14801 11.9067 4.33009 11.9462 4.51217L6.365 7.76592C5.9375 7.37009 5.37542 7.12467 4.75 7.12467C3.43583 7.12467 2.375 8.18551 2.375 9.49967C2.375 10.8138 3.43583 11.8747 4.75 11.8747C5.37542 11.8747 5.9375 11.6293 6.365 11.2334L12.0017 14.5268C11.9621 14.693 11.9383 14.8672 11.9383 15.0413C11.9383 16.3159 12.9754 17.353 14.25 17.353C15.5246 17.353 16.5617 16.3159 16.5617 15.0413C16.5617 13.7668 15.5246 12.7297 14.25 12.7297Z" fill="black"/>
</g>
<defs>
<clipPath id="clip0_163_61702">
<rect width="19" height="19" fill="white" transform="translate(0 -0.000976562)"/>
</clipPath>
</defs>
</svg>
