<svg width="30" height="22" viewBox="0 0 30 22" fill="none" xmlns="http://www.w3.org/2000/svg">
<path d="M22.987 19.6654C22.4565 19.6654 21.9478 19.4547 21.5728 19.0796C21.1977 18.7045 20.987 18.1958 20.987 17.6654C20.987 17.1349 21.1977 16.6262 21.5728 16.2512C21.9478 15.8761 22.4565 15.6654 22.987 15.6654C23.5174 15.6654 24.0261 15.8761 24.4012 16.2512C24.7763 16.6262 24.987 17.1349 24.987 17.6654C24.987 18.1958 24.7763 18.7045 24.4012 19.0796C24.0261 19.4547 23.5174 19.6654 22.987 19.6654ZM24.987 7.66536L27.6003 10.9987H21.6536V7.66536M6.98698 19.6654C6.45655 19.6654 5.94784 19.4547 5.57277 19.0796C5.19769 18.7045 4.98698 18.1958 4.98698 17.6654C4.98698 17.1349 5.19769 16.6262 5.57277 16.2512C5.94784 15.8761 6.45655 15.6654 6.98698 15.6654C7.51741 15.6654 8.02612 15.8761 8.40119 16.2512C8.77627 16.6262 8.98698 17.1349 8.98698 17.6654C8.98698 18.1958 8.77627 18.7045 8.40119 19.0796C8.02612 19.4547 7.51741 19.6654 6.98698 19.6654ZM25.6536 5.66536H21.6536V0.332031H2.98698C1.50698 0.332031 0.320312 1.5187 0.320312 2.9987V17.6654H2.98698C2.98698 18.7262 3.40841 19.7436 4.15855 20.4938C4.9087 21.2439 5.92611 21.6654 6.98698 21.6654C8.04785 21.6654 9.06526 21.2439 9.81541 20.4938C10.5656 19.7436 10.987 18.7262 10.987 17.6654H18.987C18.987 18.7262 19.4084 19.7436 20.1586 20.4938C20.9087 21.2439 21.9261 21.6654 22.987 21.6654C24.0478 21.6654 25.0653 21.2439 25.8154 20.4938C26.5656 19.7436 26.987 18.7262 26.987 17.6654H29.6536V10.9987L25.6536 5.66536Z" fill="#1D1B20" fill-opacity="0.6"/>
</svg>
