<svg width="25" height="24" viewBox="0 0 25 24" fill="none" xmlns="http://www.w3.org/2000/svg">
<path d="M23.8935 4.93659C23.0585 5.30659 22.1615 5.55659 21.2185 5.66959C22.1915 5.08738 22.9194 4.17105 23.2665 3.09159C22.3523 3.63458 21.3518 4.01678 20.3085 4.22159C19.6069 3.47245 18.6776 2.97591 17.6648 2.80906C16.6521 2.64221 15.6126 2.81438 14.7077 3.29884C13.8029 3.7833 13.0833 4.55295 12.6607 5.48829C12.238 6.42363 12.136 7.47234 12.3705 8.47159C10.5182 8.37858 8.70613 7.89714 7.05192 7.05849C5.39772 6.21985 3.93834 5.04275 2.7685 3.60359C2.3685 4.29359 2.1385 5.09359 2.1385 5.94559C2.13805 6.71258 2.32693 7.46783 2.68838 8.14432C3.04982 8.82081 3.57266 9.39763 4.2105 9.82359C3.47078 9.80005 2.74737 9.60017 2.1005 9.24059V9.30059C2.10043 10.3763 2.47253 11.419 3.15368 12.2516C3.83483 13.0842 4.78307 13.6555 5.8375 13.8686C5.15128 14.0543 4.43184 14.0817 3.7335 13.9486C4.031 14.8742 4.6105 15.6836 5.39087 16.2635C6.17124 16.8434 7.11342 17.1648 8.0855 17.1826C6.43533 18.478 4.39739 19.1807 2.2995 19.1776C1.92788 19.1777 1.55658 19.156 1.1875 19.1126C3.31698 20.4818 5.79584 21.2084 8.3275 21.2056C16.8975 21.2056 21.5825 14.1076 21.5825 7.95159C21.5825 7.75159 21.5775 7.54959 21.5685 7.34959C22.4798 6.69056 23.2664 5.87448 23.8915 4.93959L23.8935 4.93659Z" fill="white"/>
</svg>
