<svg width="16" height="17" viewBox="0 0 16 17" fill="none" xmlns="http://www.w3.org/2000/svg">
<path d="M2.66667 3.16667H6.66667V7.16667H2.66667V3.16667ZM13.3333 3.16667V7.16667H9.33333V3.16667H13.3333ZM9.33333 10.5H10.6667V9.16667H9.33333V7.83333H10.6667V9.16667H12V7.83333H13.3333V9.16667H12V10.5H13.3333V12.5H12V13.8333H10.6667V12.5H8.66667V13.8333H7.33333V11.1667H9.33333V10.5ZM10.6667 10.5V12.5H12V10.5H10.6667ZM2.66667 13.8333V9.83333H6.66667V13.8333H2.66667ZM4 4.5V5.83333H5.33333V4.5H4ZM10.6667 4.5V5.83333H12V4.5H10.6667ZM4 11.1667V12.5H5.33333V11.1667H4ZM2.66667 7.83333H4V9.16667H2.66667V7.83333ZM6 7.83333H8.66667V10.5H7.33333V9.16667H6V7.83333ZM7.33333 4.5H8.66667V7.16667H7.33333V4.5ZM1.33333 1.83333V4.5H0V1.83333C0 1.47971 0.140476 1.14057 0.390524 0.890524C0.640573 0.640476 0.979711 0.5 1.33333 0.5L4 0.5V1.83333H1.33333ZM14.6667 0.5C15.0203 0.5 15.3594 0.640476 15.6095 0.890524C15.8595 1.14057 16 1.47971 16 1.83333V4.5H14.6667V1.83333H12V0.5H14.6667ZM1.33333 12.5V15.1667H4V16.5H1.33333C0.979711 16.5 0.640573 16.3595 0.390524 16.1095C0.140476 15.8594 0 15.5203 0 15.1667V12.5H1.33333ZM14.6667 15.1667V12.5H16V15.1667C16 15.5203 15.8595 15.8594 15.6095 16.1095C15.3594 16.3595 15.0203 16.5 14.6667 16.5H12V15.1667H14.6667Z" fill="#404040"/>
</svg>
