<svg width="15" height="13" viewBox="0 0 15 13" fill="none" xmlns="http://www.w3.org/2000/svg">
<path d="M12.2639 6.5H10.9306V8.5H8.93058V9.83333H12.2639V6.5ZM4.26392 4.5H6.26392V3.16667H2.93058V6.5H4.26392V4.5ZM13.5972 0.5H1.59725C1.24363 0.5 0.904489 0.640476 0.65444 0.890524C0.404392 1.14057 0.263916 1.47971 0.263916 1.83333V11.1667C0.263916 11.5203 0.404392 11.8594 0.65444 12.1095C0.904489 12.3595 1.24363 12.5 1.59725 12.5H13.5972C13.9509 12.5 14.29 12.3595 14.5401 12.1095C14.7901 11.8594 14.9306 11.5203 14.9306 11.1667V1.83333C14.9306 1.47971 14.7901 1.14057 14.5401 0.890524C14.29 0.640476 13.9509 0.5 13.5972 0.5ZM13.5972 11.1667H1.59725V1.83333H13.5972V11.1667Z" fill="#1D1B20" fill-opacity="0.6"/>
</svg>
