<svg width="25" height="24" viewBox="0 0 25 24" fill="none" xmlns="http://www.w3.org/2000/svg">
<path d="M12.7488 8.32835C10.7272 8.32835 9.07742 9.97814 9.07742 11.9998C9.07742 14.0214 10.7272 15.6712 12.7488 15.6712C14.7703 15.6712 16.4201 14.0214 16.4201 11.9998C16.4201 9.97814 14.7703 8.32835 12.7488 8.32835ZM23.76 11.9998C23.76 10.4794 23.7738 8.97285 23.6884 7.45526C23.603 5.69254 23.2009 4.12813 21.9119 2.83915C20.6202 1.54741 19.0586 1.14805 17.2959 1.06266C15.7756 0.977282 14.2691 0.991054 12.7515 0.991054C11.2312 0.991054 9.72465 0.977282 8.20709 1.06266C6.44441 1.14805 4.88003 1.55016 3.59107 2.83915C2.29935 4.13089 1.9 5.69254 1.81462 7.45526C1.72924 8.9756 1.74301 10.4822 1.74301 11.9998C1.74301 13.5173 1.72924 15.0267 1.81462 16.5443C1.9 18.307 2.30211 19.8714 3.59107 21.1604C4.88278 22.4521 6.44441 22.8515 8.20709 22.9369C9.72741 23.0222 11.2339 23.0085 12.7515 23.0085C14.2718 23.0085 15.7784 23.0222 17.2959 22.9369C19.0586 22.8515 20.623 22.4494 21.9119 21.1604C23.2037 19.8686 23.603 18.307 23.6884 16.5443C23.7765 15.0267 23.76 13.5201 23.76 11.9998ZM12.7488 17.6487C9.62275 17.6487 7.09991 15.1258 7.09991 11.9998C7.09991 8.87369 9.62275 6.35081 12.7488 6.35081C15.8748 6.35081 18.3976 8.87369 18.3976 11.9998C18.3976 15.1258 15.8748 17.6487 12.7488 17.6487ZM18.6289 7.43873C17.8991 7.43873 17.3097 6.84933 17.3097 6.11945C17.3097 5.38958 17.8991 4.80017 18.6289 4.80017C19.3588 4.80017 19.9482 5.38958 19.9482 6.11945C19.9484 6.29276 19.9144 6.46442 19.8482 6.62458C19.782 6.78474 19.6848 6.93026 19.5623 7.05281C19.4397 7.17536 19.2942 7.27253 19.1341 7.33875C18.9739 7.40498 18.8023 7.43895 18.6289 7.43873Z" fill="white"/>
</svg>
