<svg width="25" height="24" viewBox="0 0 25 24" fill="none" xmlns="http://www.w3.org/2000/svg">
<path fill-rule="evenodd" clip-rule="evenodd" d="M1.75 2.838C1.75 2.35053 1.94365 1.88303 2.28834 1.53834C2.63303 1.19365 3.10053 1 3.588 1H21.91C22.1516 0.999608 22.3909 1.04687 22.6141 1.13907C22.8374 1.23127 23.0403 1.36661 23.2112 1.53734C23.3822 1.70807 23.5177 1.91083 23.6102 2.13401C23.7026 2.3572 23.7501 2.59643 23.75 2.838V21.16C23.7503 21.4016 23.7029 21.6409 23.6106 21.8642C23.5183 22.0875 23.3828 22.2904 23.212 22.4613C23.0412 22.6322 22.8384 22.7678 22.6151 22.8602C22.3919 22.9526 22.1526 23.0001 21.911 23H3.588C3.34655 23 3.10746 22.9524 2.8844 22.86C2.66134 22.7676 2.45867 22.6321 2.28798 22.4613C2.1173 22.2905 1.98193 22.0878 1.88962 21.8647C1.79731 21.6416 1.74987 21.4025 1.75 21.161V2.838ZM10.458 9.388H13.437V10.884C13.867 10.024 14.967 9.25 16.62 9.25C19.789 9.25 20.54 10.963 20.54 14.106V19.928H17.333V14.822C17.333 13.032 16.903 12.022 15.811 12.022C14.296 12.022 13.666 13.111 13.666 14.822V19.928H10.458V9.388ZM4.958 19.791H8.166V9.25H4.958V19.79V19.791ZM8.625 5.812C8.63105 6.08668 8.58217 6.35979 8.48124 6.61532C8.38031 6.87084 8.22935 7.10364 8.03723 7.30003C7.84511 7.49643 7.6157 7.65248 7.36246 7.75901C7.10921 7.86554 6.83724 7.92042 6.5625 7.92042C6.28776 7.92042 6.01579 7.86554 5.76255 7.75901C5.5093 7.65248 5.27989 7.49643 5.08777 7.30003C4.89565 7.10364 4.74469 6.87084 4.64376 6.61532C4.54283 6.35979 4.49395 6.08668 4.5 5.812C4.51187 5.27286 4.73439 4.75979 5.11989 4.38269C5.50539 4.00558 6.02322 3.79442 6.5625 3.79442C7.10178 3.79442 7.61961 4.00558 8.00512 4.38269C8.39062 4.75979 8.61313 5.27286 8.625 5.812Z" fill="white"/>
</svg>
