<svg width="25" height="24" viewBox="0 0 25 24" fill="none" xmlns="http://www.w3.org/2000/svg">
<g clip-path="url(#clip0_127_101119)">
<path d="M24.3935 4.93757C23.5585 5.30757 22.6615 5.55757 21.7185 5.67057C22.6915 5.08836 23.4194 4.17203 23.7665 3.09257C22.8523 3.63555 21.8518 4.01776 20.8085 4.22257C20.1069 3.47343 19.1776 2.97689 18.1648 2.81004C17.1521 2.64319 16.1126 2.81536 15.2077 3.29982C14.3029 3.78428 13.5833 4.55393 13.1607 5.48927C12.738 6.42461 12.636 7.47332 12.8705 8.47257C11.0182 8.37956 9.20613 7.89811 7.55192 7.05947C5.89772 6.22083 4.43834 5.04373 3.2685 3.60457C2.8685 4.29457 2.6385 5.09457 2.6385 5.94657C2.63805 6.71356 2.82693 7.46881 3.18838 8.1453C3.54982 8.82179 4.07266 9.3986 4.7105 9.82457C3.97078 9.80103 3.24737 9.60115 2.6005 9.24157V9.30156C2.60043 10.3773 2.97253 11.4199 3.65368 12.2526C4.33483 13.0852 5.28307 13.6565 6.3375 13.8696C5.65128 14.0553 4.93184 14.0826 4.2335 13.9496C4.531 14.8752 5.1105 15.6846 5.89087 16.2645C6.67124 16.8444 7.61342 17.1657 8.5855 17.1836C6.93533 18.479 4.89739 19.1817 2.7995 19.1786C2.42788 19.1787 2.05658 19.157 1.6875 19.1136C3.81698 20.4827 6.29584 21.2094 8.8275 21.2066C17.3975 21.2066 22.0825 14.1086 22.0825 7.95257C22.0825 7.75257 22.0775 7.55056 22.0685 7.35056C22.9798 6.69154 23.7664 5.87546 24.3915 4.94057L24.3935 4.93757Z" fill="white"/>
</g>
<defs>
<clipPath id="clip0_127_101119">
<rect width="24" height="24" fill="white" transform="translate(0.75)"/>
</clipPath>
</defs>
</svg>
